<svg width="64" height="64" xmlns="http://www.w3.org/2000/svg">

 <g>
  <title>Layer 1</title>
  <ellipse stroke="#000" stroke-width="0" ry="31.62472" rx="31.74972" id="svg_1" cy="32.125" cx="32" fill="#0000ff"/>
  <path stroke="#000" id="svg_6" d="m8.90985,46.54389l47.22442,0.0178l-1.53244,2.23653l-44.14144,-0.05341l-1.55054,-2.20092l0,0zm0.32453,-29.75086l46.59339,-0.05341l1.35219,2.29433l-49.31582,0.0178l1.37024,-2.25873zm-4.5982,14.90775l55.7537,-0.05341l-0.07207,2.29434l-55.64558,-0.03561l-0.03606,-2.20532zm55.79986,0.2128c0,15.18904 -12.51546,27.54547 -27.90156,27.54547c-15.37946,0 -27.89258,-12.35867 -27.89258,-27.54547c0,-15.18688 12.51539,-27.54331 27.89258,-27.54331c15.38611,-0.00223 27.90156,12.35643 27.90156,27.54331zm-27.89937,-29.75086c-16.60713,0 -30.12134,13.34499 -30.12134,29.74862c0,16.40587 13.51421,29.75086 30.12134,29.75086c16.61617,0 30.12813,-13.34498 30.12813,-29.75086c0,-16.40364 -13.51195,-29.74862 -30.12813,-29.74862zm8.45289,29.75086c0,16.23075 -4.45314,27.54547 -8.45289,27.54547c-3.99523,0 -8.4483,-11.31472 -8.4483,-27.54547c0,-16.23522 4.45087,-27.54331 8.4483,-27.54331c3.9975,-0.00223 8.45289,11.30809 8.45289,27.54331zm-8.45289,-29.75086c-6.93773,0 -10.68158,15.32865 -10.68158,29.74862c0,14.42438 3.74385,29.75086 10.68158,29.75086c6.9378,0 10.68844,-15.32871 10.68844,-29.75086c-0.00226,-14.41998 -3.75064,-29.74862 -10.68844,-29.74862zm19.79664,29.75086c0,15.18904 -8.88381,27.54547 -19.79664,27.54547c-10.91056,0 -19.78985,-12.35867 -19.78985,-27.54547c0,-15.18688 8.87929,-27.54331 19.78985,-27.54331c10.91283,-0.00223 19.79664,12.35643 19.79664,27.54331zm-19.79664,-29.75086c-12.14057,0 -22.02313,13.34499 -22.02313,29.74862c0,16.40587 9.88256,29.75086 22.02313,29.75086c12.14509,0 22.02546,-13.34498 22.02546,-29.75086c0,-16.40364 -9.88037,-29.74862 -22.02546,-29.74862z" stroke-width="0" fill="#0909ed"/>
  <text font-weight="bold" transform="matrix(0.419992 0 0 0.55794 35.9411 17.6144)" stroke="#000" xml:space="preserve" text-anchor="start" font-family="'Arimo'" font-size="24" id="svg_4" y="32.27684" x="-57.91207" stroke-width="0" fill="#e5e5e5">Bistrobits</text>
 </g>
</svg>